<svg width="440" height="81" viewBox="0 0 440 81" fill="none" xmlns="http://www.w3.org/2000/svg">
<path d="M20.0983 0H1.45997H0V43.1355H20.0983V20.0983H197.836V23.0372H120.742C100.245 23.0372 83.5786 39.7037 83.5786 60.2001V81H103.677V60.2001C103.677 50.7956 111.337 43.1355 120.742 43.1355H197.836H217.934V23.0372V20.0983V0H197.836H20.0983Z" fill="black"/>
<path d="M242.014 0H223.376H221.916V43.1355H242.014V20.0983H419.751V23.0372H342.657C322.161 23.0372 305.494 39.7037 305.494 60.2001V81H325.593V60.2001C325.593 50.7956 333.253 43.1355 342.657 43.1355H419.751H439.85V23.0372V20.0983V0H419.751H242.014Z" fill="black"/>
</svg>
