<svg width="290" height="77" viewBox="0 0 290 77" fill="none" xmlns="http://www.w3.org/2000/svg">
<g clip-path="url(#clip0)">
<path d="M27.6 0H38.2L66 76.7H55.7L47.7 53.8H17.7L9.7 76.7H0L27.6 0ZM20.5 46.1H45.1L36.5 20.9C35 16.7 33.1 10.3 33.1 10.3H32.9C32.9 10.3 30.9 16.6 29.4 20.9L20.5 46.1Z" fill="black"/>
<path d="M77.4 68H77.2V76.7H68.7V0H77.2V28.6H77.4C81.5 23 87 19.6 94.8 19.6C108.6 19.6 117.9 30.1 117.9 48.2C117.9 65.6 109.2 76.8 94.5 76.8C87.1 76.7 81.8 74.1 77.4 68ZM109.2 48.2C109.2 36 104.3 26.8 94 26.8C82.1 26.8 76.7 36.5 76.7 48.2C76.7 60.4 82.4 69.5 93.9 69.5C104.3 69.6 109.2 60.5 109.2 48.2Z" fill="black"/>
<path d="M119.2 48.1C119.2 32.3 129.3 19.5 145.5 19.5C161.8 19.5 171.7 32.3 171.7 48.1C171.7 63.9 161.8 76.7 145.5 76.7C129.3 76.7 119.2 63.9 119.2 48.1ZM162.9 48.1C162.9 36.1 157 26.6 145.5 26.6C134 26.6 127.9 36.2 127.9 48.1C127.9 60.1 133.9 69.5 145.5 69.5C157.1 69.5 162.9 60.1 162.9 48.1Z" fill="black"/>
<path d="M210.5 77.0001V68.0001H210.3C206.4 73.3001 201.8 76.7001 193.9 76.7001C182.8 76.7001 175.6 70.0001 175.6 58.7001V21.1001H184.1V58.5001C184.1 65.5001 188.6 69.6001 196.3 69.6001C204.9 69.6001 210.5 63.1001 210.5 54.5001V21.1001H219V77.0001H210.5Z" fill="black"/>
<path d="M222.9 21.0999H230.8V4.8999H239.3V21.0999H249.8V28.9999H239.3V64.2999C239.3 68.0999 241.3 69.2999 244.8 69.2999C246.5 69.2999 248.4 68.8999 249.3 68.5999H249.6V75.9999C247.6 76.3999 245.3 76.6999 242.8 76.6999C235.9 76.6999 230.8 73.8999 230.8 66.1999V28.9999H222.9V21.0999Z" fill="black"/>
<path d="M255.4 22.3C255.4 12.3 263.1 5 272.5 5C281.9 5 289.6 12.4 289.6 22.3C289.6 32.3 281.9 39.6 272.5 39.6C263 39.6 255.4 32.3 255.4 22.3ZM286.5 22.3C286.5 13.8 280.6 7.5 272.4 7.5C264.2 7.5 258.3 13.8 258.3 22.3C258.3 30.9 264.2 37.1 272.4 37.1C280.6 37.1 286.5 30.9 286.5 22.3ZM265.8 12.9H274.3C277.7 12.9 280.1 15 280.1 18.1C280.1 20.2 279 21.9 276.7 22.5V22.6C278.5 23.1 279.4 24.1 279.6 26.3C279.9 28.9 279.7 30.8 280.4 31.1V31.3H276.9C276.4 31.1 276.2 29 276.1 27.1C276 25.2 274.9 23.9 272.6 23.9H269.6V31.3H265.9V12.9H265.8ZM269.4 21.1H273.4C275.4 21.1 276.4 20 276.4 18.5C276.4 17 275.4 15.9 273.4 15.9H269.4V21.1Z" fill="black"/>
</g>
<defs>
<clipPath id="clip0">
<rect width="289.5" height="77" fill="white"/>
</clipPath>
</defs>
</svg>
