<svg width="117" height="76" viewBox="0 0 117 76" fill="none" xmlns="http://www.w3.org/2000/svg">
<path d="M24.4973 38.2698C24.085 37.6611 23.5627 37.2684 22.9226 37.0878C23.5941 36.8522 24.1596 36.3966 24.623 35.7291C25.0825 35.0615 25.3848 34.2957 25.5262 33.4357L26.7672 25.8605C27.1284 23.6338 26.8928 22.0002 26.0642 20.9595C25.2317 19.9189 23.602 19.4005 21.1751 19.4005L14.0004 19.4005L7.99994 56.0671L15.1746 56.0671C17.6015 56.0671 19.4825 55.5762 20.8217 54.5984C22.1608 53.6205 23.0051 52.0458 23.3624 49.8742L24.8586 40.7399C25.0236 39.7032 24.9058 38.8785 24.4973 38.2698ZM18.9799 40.8774L17.5151 49.831C17.3659 50.7538 16.8475 51.2133 15.9718 51.2133L14.5463 51.2133L16.4666 39.4951H17.9431C18.7835 39.4951 19.1291 39.9545 18.9799 40.8774ZM21.4735 25.6366L20.1266 33.8794C19.9734 34.7984 19.4786 35.2617 18.6343 35.2617H17.1577L18.9602 24.2582L20.3858 24.2582C21.2576 24.2582 21.6228 24.7177 21.4735 25.6366Z" fill="black"/>
<path d="M41.6702 36.8876C42.1846 36.0983 42.5616 34.9948 42.7933 33.5693L44.0343 25.994C44.427 23.5868 44.0735 21.8864 42.97 20.8928C41.8665 19.8993 39.9973 19.4006 37.3583 19.4006L30.5018 19.4006L24.4973 56.0671L30.2465 56.0671L32.9247 39.715H33.8751C33.8397 42.5071 33.7612 45.2325 33.6434 47.8911C33.5256 50.5497 33.3763 53.275 33.1996 56.0671L39.475 56.0671C39.526 53.1847 39.5535 50.318 39.5653 47.467C39.5771 44.616 39.5417 41.706 39.4671 38.7333C40.4175 38.2935 41.1518 37.6769 41.6702 36.8876ZM38.2301 25.994L36.9813 33.6125C36.7968 34.7434 36.0703 35.305 34.8058 35.305H33.6434L35.4537 24.2544L36.5611 24.2544C37.8649 24.2583 38.4186 24.8356 38.2301 25.994Z" fill="black"/>
<path d="M47.1091 19.4006L41.1047 56.0671L46.8538 56.0671L52.8582 19.4006L47.1091 19.4006Z" fill="black"/>
<path d="M67.345 21.0735C66.3476 19.9582 64.6747 19.4045 62.3185 19.4045L55.3048 19.4045L49.3043 56.071L56.318 56.071C61.0304 56.071 63.7243 53.9937 64.4076 49.8349L68.3621 25.6877C68.6802 23.7242 68.3425 22.1848 67.345 21.0735ZM62.6719 25.6367L58.7095 49.8271C58.5603 50.7499 58.0262 51.2094 57.1112 51.2094L55.8467 51.2094L60.2607 24.2543L61.5252 24.2543C62.4402 24.2583 62.8211 24.7177 62.6719 25.6367Z" fill="black"/>
<path d="M74.9752 38.423L74.2213 43.0569H76.0591L74.8888 50.2276C74.7396 51.1505 74.1231 51.61 73.0353 51.61C72.1596 51.61 71.7983 51.1505 71.9475 50.2276L76.0198 25.2322C76.1691 24.3133 76.6992 23.8499 77.6103 23.8499C78.6941 23.8499 79.1614 24.3093 79.0122 25.2322L77.9519 31.7353L83.0963 31.7353L84.1488 25.2832C84.4826 23.2333 84.2116 21.6743 83.3359 20.6062C82.4601 19.5341 80.8147 19 78.4035 19C75.9884 19 74.1191 19.5341 72.7879 20.6022C71.4606 21.6704 70.628 23.2294 70.2942 25.2793L66.2298 50.2276C66.0413 51.3861 66.0452 52.3679 66.2494 53.169C66.4497 53.9701 66.8188 54.6181 67.349 55.105C67.8791 55.5959 68.531 55.9454 69.3046 56.1535C70.0743 56.3616 70.9343 56.4638 71.8768 56.4638C72.8547 56.4638 73.8285 56.3459 74.7946 56.1064C75.7606 55.8708 76.5735 55.4388 77.2372 54.8144L78.3211 56.2831H79.4128L82.3227 38.4152L74.9752 38.4152V38.423Z" fill="black"/>
<path d="M112.871 20.4687C111.995 19.4909 110.326 19 107.864 19C103.187 19 100.52 21.0067 99.8647 25.0162L98.9693 30.4944C98.8436 31.268 98.8122 31.9866 98.879 32.6542C98.9457 33.3218 99.091 33.9855 99.3188 34.6374C99.5466 35.2893 99.8607 35.9451 100.265 36.597C100.67 37.2489 101.141 37.9479 101.691 38.6901C102.413 39.6404 102.998 40.4219 103.442 41.0306C103.886 41.6393 104.232 42.1733 104.471 42.6328C104.711 43.0923 104.852 43.5164 104.895 43.9012C104.938 44.2861 104.919 44.718 104.844 45.1932L103.992 50.4044C103.862 51.2055 103.32 51.606 102.37 51.606C101.455 51.606 101.062 51.2055 101.196 50.4044L102.472 42.6092L96.9862 42.6092L95.7099 50.4044C95.3879 52.3639 95.7059 53.8641 96.6602 54.9047C97.6145 55.9454 99.307 56.4638 101.734 56.4638C104.196 56.4638 106.054 55.9454 107.314 54.9047C108.575 53.8641 109.364 52.3639 109.686 50.4044L110.546 45.1461C110.676 44.345 110.735 43.6185 110.719 42.9627C110.703 42.3108 110.589 41.6628 110.377 41.0227C110.165 40.3865 109.859 39.715 109.466 39.016C109.07 38.3209 108.555 37.5395 107.923 36.6755C107.259 35.7841 106.713 35.0497 106.281 34.4685C105.849 33.8873 105.512 33.3768 105.268 32.9331C105.025 32.4854 104.864 32.0809 104.785 31.7078C104.703 31.3348 104.703 30.9146 104.781 30.4394L105.673 25.0044C105.798 24.2308 106.321 23.8459 107.236 23.8459C108.151 23.8459 108.543 24.2308 108.418 25.0044L107.314 31.7314L112.588 31.7314L113.688 25.0044C114.018 22.9663 113.747 21.4505 112.871 20.4687Z" fill="black"/>
<path d="M88.7002 51.2133C88.2996 51.2133 88.0051 51.3783 87.8755 51.4647L87.8009 51.5196L87.039 52.0851L86.7641 51.8181L87.4985 51.2762C87.5849 51.2094 87.8991 50.9463 87.9658 50.5497C87.9658 50.5418 87.9697 50.5379 87.9737 50.5261L89.6152 40.4926C89.6152 40.4847 89.6152 40.4808 89.6152 40.469C89.6819 40.0684 89.4502 39.8053 89.3874 39.7425L89.3717 39.7268L88.8337 39.2006L89.195 38.9335L89.7722 39.499L89.8272 39.554C89.9293 39.6404 90.1689 39.8053 90.5694 39.8053C90.5891 39.8053 90.6048 39.8053 90.6205 39.8053L96.1615 39.8053L96.9587 34.9476L91.3509 34.9476C90.9543 34.9515 90.6676 35.1086 90.538 35.1989L90.4634 35.2539L89.7016 35.8194L89.4306 35.5524L90.161 35.0104C90.2474 34.9437 90.5616 34.6806 90.6283 34.28C90.6283 34.2722 90.6323 34.2682 90.6362 34.2604L92.1638 24.9416C92.1638 24.9337 92.1638 24.9298 92.1638 24.9219C92.2306 24.5214 91.9989 24.2583 91.936 24.1954L91.3823 23.6535L91.7436 23.3865L92.3209 23.952L92.3758 24.0069C92.478 24.0933 92.7136 24.2583 93.1181 24.2583C93.1377 24.2583 93.1534 24.2583 93.173 24.2583L98.4509 24.2583L99.2442 19.4045L89.6898 19.4045L86.9958 21.4033L81.6433 54.0683L83.6814 56.0671L93.499 56.0671L94.2922 51.2094L88.7119 51.2094H88.7002V51.2133Z" fill="black"/>
<path d="M1.41071 47.2307L112.46 20.1684L113.935 24.9504L115.409 29.7324L4.35976 56.7947L1.41071 47.2307Z" fill="#FF4343"/>
<path d="M12.5633 14.728L109.559 51.9559L108.144 56.3446L106.728 60.7334L9.73267 23.5054L12.5633 14.728Z" fill="#FF4343"/>
</svg>
