<?xml version="1.0" encoding="utf-8"?>
<!-- Generator: Adobe Illustrator 24.2.1, SVG Export Plug-In . SVG Version: 6.00 Build 0)  -->
<svg version="1.1" id="Layer_1" xmlns="http://www.w3.org/2000/svg" xmlns:xlink="http://www.w3.org/1999/xlink" x="0px" y="0px"
	 viewBox="0 0 269.47 95.41" style="enable-background:new 0 0 269.47 95.41;" xml:space="preserve">
<g>
	<path d="M42.01,49.07c-1.05-1.55-2.38-2.55-4.01-3.01c1.71-0.6,3.15-1.76,4.33-3.46c1.17-1.7,1.94-3.65,2.3-5.84l3.16-19.29
		C48.71,11.8,48.11,7.64,46,4.99c-2.12-2.65-6.27-3.97-12.45-3.97H15.28L0,94.39h18.27c6.18,0,10.97-1.25,14.38-3.74
		c3.41-2.49,5.56-6.5,6.47-12.03l3.81-23.26C43.35,52.72,43.05,50.62,42.01,49.07z M27.96,55.71l-3.73,22.8
		c-0.38,2.35-1.7,3.52-3.93,3.52h-3.63l4.89-29.84h3.76C27.46,52.19,28.34,53.36,27.96,55.71z M34.31,16.9l-3.43,20.99
		c-0.39,2.34-1.65,3.52-3.8,3.52h-3.76l4.59-28.02h3.63C33.76,13.39,34.69,14.56,34.31,16.9z"/>
	<path d="M85.74,45.55c1.31-2.01,2.27-4.82,2.86-8.45l3.16-19.29c1-6.13,0.1-10.46-2.71-12.99c-2.81-2.53-7.57-3.8-14.29-3.8H57.3
		L42.01,94.39h14.64l6.82-41.64h2.42c-0.09,7.11-0.29,14.05-0.59,20.82c-0.3,6.77-0.68,13.71-1.13,20.82h15.98
		c0.13-7.34,0.2-14.64,0.23-21.9c0.03-7.26-0.06-14.67-0.25-22.24C82.55,49.13,84.42,47.56,85.74,45.55z M76.98,17.81l-3.18,19.4
		c-0.47,2.88-2.32,4.31-5.54,4.31h-2.96l4.61-28.14h2.82C76.05,13.39,77.46,14.86,76.98,17.81z"/>
	<polygon points="99.59,1.02 84.3,94.39 98.94,94.39 114.23,1.02 	"/>
	<path d="M151.12,5.28c-2.54-2.84-6.8-4.25-12.8-4.25h-17.86l-15.28,93.37h17.86c12,0,18.86-5.29,20.6-15.88l10.07-61.49
		C154.52,12.03,153.66,8.11,151.12,5.28z M139.22,16.9l-10.09,61.6c-0.38,2.35-1.74,3.52-4.07,3.52h-3.22l11.24-68.64h3.22
		C138.63,13.39,139.6,14.56,139.22,16.9z"/>
	<path d="M170.55,49.46l-1.92,11.8h4.68l-2.98,18.26c-0.38,2.35-1.95,3.52-4.72,3.52c-2.23,0-3.15-1.17-2.77-3.52l10.37-63.65
		c0.38-2.34,1.73-3.52,4.05-3.52c2.76,0,3.95,1.17,3.57,3.52l-2.7,16.56h13.1L193.91,16c0.85-5.22,0.16-9.19-2.07-11.91
		C189.61,1.36,185.42,0,179.28,0c-6.15,0-10.91,1.36-14.3,4.08c-3.38,2.72-5.5,6.69-6.35,11.91l-10.35,63.53
		c-0.48,2.95-0.47,5.45,0.05,7.49c0.51,2.04,1.45,3.69,2.8,4.93c1.35,1.25,3.01,2.14,4.98,2.67c1.96,0.53,4.15,0.79,6.55,0.79
		c2.49,0,4.97-0.3,7.43-0.91c2.46-0.6,4.53-1.7,6.22-3.29l2.76,3.74h2.78l7.41-45.5H170.55z"/>
	<path d="M267.05,3.74C264.82,1.25,260.57,0,254.3,0c-11.91,0-18.7,5.11-20.37,15.32l-2.28,13.95c-0.32,1.97-0.4,3.8-0.23,5.5
		c0.17,1.7,0.54,3.39,1.12,5.05c0.58,1.66,1.38,3.33,2.41,4.99c1.03,1.66,2.23,3.44,3.63,5.33c1.84,2.42,3.33,4.41,4.46,5.96
		c1.13,1.55,2.01,2.91,2.62,4.08c0.61,1.17,0.97,2.25,1.08,3.23c0.11,0.98,0.06,2.08-0.13,3.29l-2.17,13.27
		c-0.33,2.04-1.71,3.06-4.13,3.06c-2.33,0-3.33-1.02-2.99-3.06l3.25-19.85h-13.97l-3.25,19.85c-0.82,4.99-0.01,8.81,2.42,11.46
		c2.43,2.65,6.74,3.97,12.92,3.97c6.27,0,11-1.32,14.21-3.97c3.21-2.65,5.22-6.47,6.04-11.46l2.19-13.39
		c0.33-2.04,0.48-3.89,0.44-5.56c-0.04-1.66-0.33-3.31-0.87-4.94c-0.54-1.62-1.32-3.33-2.32-5.11c-1.01-1.77-2.32-3.76-3.93-5.96
		c-1.69-2.27-3.08-4.14-4.18-5.62c-1.1-1.48-1.96-2.78-2.58-3.91c-0.62-1.14-1.03-2.17-1.23-3.12c-0.21-0.95-0.21-2.02-0.01-3.23
		l2.27-13.84c0.32-1.97,1.65-2.95,3.98-2.95c2.33,0,3.33,0.98,3.01,2.95l-2.81,17.13h13.43l2.8-17.13
		C269.97,10.1,269.28,6.24,267.05,3.74z"/>
	<path d="M205.5,82.03c-1.02,0-1.77,0.42-2.1,0.64l-0.19,0.14v0l-1.94,1.44l-0.7-0.68l1.87-1.38c0.22-0.17,1.02-0.84,1.19-1.85
		c0-0.02,0.01-0.03,0.02-0.06l4.18-25.55c0-0.02,0-0.03,0-0.06c0.17-1.02-0.42-1.69-0.58-1.85l-0.04-0.04l0,0l-1.37-1.34l0.92-0.68
		l1.47,1.44h0l0.14,0.14c0.26,0.22,0.87,0.64,1.89,0.64c0.05,0,0.09,0,0.13,0h14.11l2.03-12.37h-14.28
		c-1.01,0.01-1.74,0.41-2.07,0.64l-0.19,0.14l-1.94,1.44l-0.69-0.68l1.86-1.38c0.22-0.17,1.02-0.84,1.19-1.86
		c0-0.02,0.01-0.03,0.02-0.05l3.89-23.73c0-0.02,0-0.03,0-0.05c0.17-1.02-0.42-1.69-0.58-1.85l-1.41-1.38l0.92-0.68l1.47,1.44
		l0.14,0.14c0.26,0.22,0.86,0.64,1.89,0.64c0.05,0,0.09,0,0.14,0h13.44l2.02-12.36h-24.33l-6.86,5.09L187.53,89.3l5.19,5.09h25
		l2.02-12.37h-14.21H205.5z"/>
</g>
</svg>
