<?xml version="1.0" encoding="utf-8"?>
<!-- Generator: Adobe Illustrator 24.2.1, SVG Export Plug-In . SVG Version: 6.00 Build 0)  -->
<svg version="1.1" id="Layer_1" xmlns="http://www.w3.org/2000/svg" xmlns:xlink="http://www.w3.org/1999/xlink" x="0px" y="0px"
	 viewBox="0 0 491.04 180.04" style="enable-background:new 0 0 491.04 180.04;" xml:space="preserve">
<g>
	<rect x="133.17" y="77.75" width="19.81" height="23.35"/>
	<rect x="193.27" y="40.07" width="107.9" height="10.47"/>
	<path d="M268.16,63.74h-32.7c-4.51,9.34-7.78,15.73-9.82,19.16c21.69-1.39,40.1-2.79,55.24-4.19
		C275.3,72.07,271.06,67.07,268.16,63.74z"/>
	<rect x="96.13" y="77.75" width="20.29" height="23.35"/>
	<rect x="96.13" y="41.52" width="20.29" height="22.06"/>
	<rect x="133.17" y="41.52" width="19.81" height="22.06"/>
	<rect x="340.82" y="79.31" width="16.03" height="25.3"/>
	<polygon points="389.14,104.62 389.14,79.31 388.66,79.31 373.6,79.31 373.11,79.31 373.11,104.62 373.6,104.62 388.66,104.62 	"/>
	<rect x="373.11" y="40.48" width="16.03" height="25.3"/>
	<polygon points="340.82,41.12 340.82,65.14 340.82,65.78 356.85,65.78 356.85,65.14 356.85,41.12 356.85,40.48 340.82,40.48 	"/>
	<path d="M478.04,14.19h-60.06h-6.2h-6.8h-6.2h-25.45h-16.75h-25.77v-0.14h-13h-49v-0.88v-13h-13H238.1h-13v13v0.88h-42.8v-0.02h-13
		h-23.4V13V0h-13h-16.75h-13v13v1.03H86l-18.52-0.07V13V0h-13H37.89h-13v13v0.88h-5.36h-13v13v7.96H6.52v20.03l13.19,10.21h7
		c-5.32,5.93-11.5,11.26-18.62,16.05L0,86.58l2.95,9.29l5.48,17.23l5.16,16.24l11.3-7.32v34.82v13l13.19,10.21h36.25v-37.77h5.43
		h16.1h6.5v27.55l13.19,10.21H228.8h18.16h93.41l13.19-10.21v-13v-14.17v-0.22v-10.25h3.03h14.94v47.86h87.31l13.19-10.21h0.13v-13
		v-14.06v-21.09l0-56.59h5.71l13.19-10.21v-0.84v-13v-6.19v-7.66v-13H478.04z M417.98,129.44V65.09h10.94v56.59v5.84v2.25h-10.94
		V129.44z M133.17,156.83h-16.75v-41.71H96.13v14.16h-16.1V98.53l-9.5,8.54c-4.19-5.69-9.45-12.29-15.78-19.81v69.57H38.15V95.15
		c-5.58,5.58-11.27,10.25-17.07,14.01l-5.48-17.23c19-12.77,32.53-29.47,40.58-50.08h-36.4V26.88h18.36V13h16.59v13.88h18.52v14.96
		c-3.76,10.52-8.21,20.03-13.37,28.51c7.62,8.48,14.33,16.54,20.13,24.16V27.03h36.4V13h16.75v14.03h30.19h6.2v43.76v58.49h-16.59
		v-14.16h-19.81V156.83z M340.82,156.83H152.98v-14.17h85.39v-13.53h-51.53v-13.85h51.53V95.79l-51.52,3.55V85.98l20.7-1.77
		c0,0,6.29-12.74,10.05-20.47h-30.76v-5.96h-4.27V27.04h55.8V13.16h17.72v13.88h55.63v0.14v30.6h-4.19v5.96h-19.23
		c9.23,10.31,18.04,21.04,26.41,32.21l-14.49,7.41c-1.19-1.61-2.93-3.89-5.24-6.84c-2.31-2.95-3.68-4.7-4.11-5.23
		c-14.71,1.4-26.31,2.47-34.78,3.22v20.78h51.44v13.85h-51.44v13.53h84.74V156.83z M356.85,118.63h-16.03v10.25h-16.1v-24v-6.74
		v-4.03v-7.02V73.17v-2.95V29.57v-2.95h6.37h25.77h16.75h25.45h6.2v2.95v23.91v2.95v72.46h-16.59v-10.25H373.6H356.85z
		 M478.31,41.04h-18.89v80.64h0v21.09v14.06h-17.23H388.3v-14.06h53.89v-15.25v-5.84V41.04h-23.94V27.19h60.06V41.04z"/>
</g>
</svg>
