<svg width="210" height="50" viewBox="0 0 210 50" fill="none" xmlns="http://www.w3.org/2000/svg">
<path d="M137.908 24.5995C137.908 20.4121 139.131 16.8688 141.575 13.9719C144.295 10.7611 147.924 9.15453 152.458 9.15453C157.033 9.15453 160.679 10.7611 163.399 13.9719C165.803 16.8688 167.008 20.4098 167.008 24.5995C167.008 28.7868 165.805 32.3302 163.399 35.2271C160.677 38.4379 157.031 40.0445 152.458 40.0445C147.885 40.0445 144.257 38.4402 141.575 35.2271C139.131 32.3302 137.908 28.7868 137.908 24.5995ZM142.285 24.5995C142.285 28.0562 143.015 31.1264 144.472 33.8149C146.286 37.2716 148.947 39 152.455 39C155.966 39 158.646 37.2716 160.5 33.8149C161.919 31.1264 162.628 28.0562 162.628 24.5995C162.628 21.1779 161.919 18.1077 160.5 15.384C158.606 11.9274 155.927 10.199 152.455 10.199C148.987 10.199 146.325 11.9274 144.472 15.384C143.015 18.0726 142.285 21.1452 142.285 24.5995Z" fill="black"/>
<path d="M34.3007 39.6206H27.5545C25.4979 38.2529 23.4437 36.267 21.3872 32.3677C18.5673 27.1335 16.8772 24.1148 16.3147 23.3138C14.1577 20.445 11.639 19.0117 8.75376 19.0117V35.8782C8.75376 37.6745 9.01987 38.9227 9.54976 39.6206H4.72469C5.25459 38.9883 5.5207 37.7424 5.5207 35.8782V15.164C5.5207 13.8665 5.27326 12.8525 4.77371 12.1195C4.37688 11.5551 3.72093 11.0726 2.8082 10.6721C1.89781 10.274 0.961746 9.87355 0 9.47543L0.448192 9.37473H8.75376V18.0141C15.3506 18.0141 19.0995 15.1358 19.9936 9.38175H24.4195C23.5558 11.7775 22.0081 13.8314 19.7695 15.5433C17.5309 17.2576 15.1008 18.3138 12.484 18.712C15.2362 19.5106 17.79 21.4567 20.143 24.5504C21.9334 27.178 23.7238 29.808 25.5143 32.4356C27.5708 35.0984 29.4056 37.0024 31.0583 38.4918C31.3268 38.733 33.9669 39.6862 34.3007 39.6206Z" fill="black"/>
<path d="M42.0764 39.6205H37.2513C37.7812 39.0561 38.0473 37.8735 38.0473 36.0772V15.1685C38.0473 13.8711 37.7975 12.8571 37.3003 12.124C36.9035 11.5596 36.2382 11.0772 35.3115 10.6767C34.3824 10.2786 33.4533 9.87815 32.5266 9.48002L32.9748 9.37932H41.2804C41.2804 9.24583 41.2313 11.2435 41.131 15.3676C41.0306 19.4941 40.9816 23.0514 40.9816 26.0468C40.9839 34.2294 41.3481 38.754 42.0764 39.6205Z" fill="black"/>
<path d="M73.2117 38.5714L72.9129 39.8197C70.0277 37.0585 66.2321 32.7681 61.5237 26.9461C57.8751 22.356 54.2289 17.7822 50.5803 13.2248V32.3864C50.5803 35.1147 51.7078 37.5269 53.9628 39.6206H48.2927C49.0887 38.2225 49.4855 36.6768 49.4855 34.9789V11.8759C48.4234 11.2108 47.6788 10.7611 47.2469 10.5293C46.4182 10.0983 45.6059 9.74706 44.8099 9.48242L45.5055 9.38172H51.7218L72.1146 34.4801V15.3185C72.1146 13.1218 70.8377 11.178 68.2839 9.48008L68.6318 9.37938H73.2071V38.5714H73.2117Z" fill="black"/>
<path d="M103.675 9.38167C103.675 11.0655 103.691 14.0374 103.789 16.1662C102.064 13.8383 98.8661 10.5807 94.1904 10.5807C90.012 10.5807 86.5478 11.8618 83.7956 14.4238C81.0434 16.9859 79.6685 20.3465 79.6685 24.5034C79.6685 28.4636 80.6303 31.8219 82.5538 34.5831C84.7434 37.6767 87.7266 39.2248 91.5059 39.2248C93.7609 39.2248 96.0485 38.576 98.3689 37.2786C100.558 36.014 102.379 34.4355 103.841 32.5386V40.2739C103.841 42.1358 103.161 43.9835 101.8 45.8126C100.341 47.8079 98.7167 48.8735 96.9263 49.007C99.3796 47.3442 100.607 43.8828 100.607 38.6276C97.5892 39.8243 94.5569 40.4238 91.5059 40.4238C86.6972 40.4238 82.8596 38.9765 79.9907 36.0819C77.1218 33.1873 75.6885 29.3301 75.6885 24.5058C75.6885 19.5831 77.5956 15.7564 81.4076 13.0304C84.8227 10.6018 89.0829 9.38869 94.1904 9.38869H103.675V9.38167Z" fill="black"/>
<path d="M107.487 39.6183C107.487 37.7026 107.419 34.4075 107.47 32.2084C109.195 34.5363 112.394 38.4215 117.069 38.4215C121.248 38.4215 124.712 37.1405 127.464 34.5784C130.216 32.0164 131.591 28.6557 131.591 24.4988C131.591 20.5386 130.629 17.1803 128.706 14.4192C126.516 11.3255 123.533 9.77752 119.754 9.77752C117.499 9.77752 115.211 10.4262 112.891 11.7237C110.701 12.9883 108.88 14.5667 107.419 16.4637V8.73302C107.419 6.87119 108.098 5.02342 109.459 3.19438C110.918 1.19672 112.543 0.133489 114.333 0C111.88 1.66276 110.652 5.12412 110.652 10.3794C113.67 9.18267 116.703 8.58314 119.754 8.58314C124.562 8.58314 128.4 10.0304 131.269 12.9251C134.138 15.8197 135.571 19.6768 135.571 24.5012C135.571 29.4239 133.664 33.2506 129.852 35.9766C126.437 38.4051 122.177 39.6183 117.069 39.6183H107.487V39.6183Z" fill="black"/>
<path d="M100.769 37.0421C100.769 37.0421 101.294 32.6252 102.281 30.1193C103.269 27.6135 103.841 26.7563 103.841 26.7563V34.4051L100.769 37.0421Z" fill="black"/>
<path d="M206.512 37.7448C205.849 36.9134 205.517 35.9158 205.517 34.7518V20.0469V18.7401V18.0258V17.4568C205.517 17.4568 205.517 17.4474 205.517 16.4076C205.517 16.4076 205.718 14.0329 204.18 12.0048C203.094 10.5739 200.363 9.10547 197.942 9.10547C196.252 9.10547 194.609 9.42163 193.019 10.0539C191.163 10.8198 189.854 11.8502 189.09 13.1476C189.09 13.1476 186.651 10.2788 184.314 9.60898C184.31 9.60664 184.305 9.60664 184.3 9.60664C183.406 9.27409 182.477 9.10781 181.516 9.10781C179.825 9.10781 178.182 9.42397 176.592 10.0563C174.737 10.8221 173.427 11.8525 172.664 13.15V9.65348H169.431V39.8923H175.848L176.147 39.7916C174.954 39.0258 174.125 38.3443 173.66 37.7448C172.998 36.9134 172.666 35.9158 172.666 34.7518V16.1383C172.666 14.6418 173.478 13.3256 175.103 12.1968C176.595 11.1312 178.121 10.5996 179.678 10.5996C182.283 10.5996 184.342 11.6066 185.862 13.616V39.89H192.279L192.578 39.7893C191.385 39.0235 190.556 38.342 190.092 37.7425C189.429 36.9111 189.097 35.9134 189.097 34.7495V20.0469V17.0516V16.1383C189.097 14.6418 189.91 13.3256 191.534 12.1968C193.026 11.1312 194.553 10.5996 196.11 10.5996C196.49 10.5996 196.859 10.6301 197.219 10.6863C198.295 10.8806 202.293 12.0329 202.293 18.3607V39.89H208.711L209.009 39.7893C207.805 39.0258 206.976 38.3443 206.512 37.7448Z" fill="black"/>
</svg>
