<svg width="60" height="33" viewBox="0 0 60 33" fill="none" xmlns="http://www.w3.org/2000/svg">
<path d="M15.6928 21.698L14.6123 32.4539H0V31.9977C1.48729 31.5864 1.80508 31.2202 1.80508 28.3032V4.69684C1.80508 1.77979 1.48729 1.41355 0 1.00233V0.546143H8.61229V1.00233C7.125 1.41355 6.8072 1.77979 6.8072 4.69684V31.5415H8.97458C12.178 31.5415 13.2585 30.5841 14.7903 21.698H15.6928Z" fill="black"/>
<path d="M38.0593 20.278H38.803C40.4047 30.2886 41.8157 31.7407 43.3411 31.7407C44.4216 31.7407 44.9746 30.6676 44.9746 28.9714C44.9746 25.4439 43.4491 21.8522 41.4788 17.8879C39.5085 14.0456 38.0212 10.8329 38.0212 6.55374C38.0275 1.88902 40.2203 0 42.8199 0C46.1314 0 47.1356 3.90654 49.3284 15.7418C51.2225 25.9451 53.0085 31.6764 55.0551 31.6764C55.8369 31.6764 56.2818 30.6676 56.2818 28.9714C56.2818 25.4439 54.7945 21.8522 52.8241 17.8879C50.8538 14.0456 49.3665 10.8329 49.3665 6.55374C49.3665 1.82477 51.5593 0 54.2733 0C55.9449 0 57.0636 0.758178 58.4746 0.758178L59.3263 11.5911H58.5826C57.4322 2.71145 56.1674 1.26577 54.6419 1.26577C53.5996 1.26577 53.0784 2.14603 53.0784 3.72021C53.0784 6.05257 54.75 10.0169 56.6123 13.6729C58.4746 17.4445 60 21.1583 60 25.7588C60 30.6098 58.3665 33 55.5 33C52.5254 33 50.9237 28.7786 48.5085 15.7418C46.8369 6.48306 45.6483 1.3236 43.303 1.3236C42.2606 1.3236 41.7394 2.1396 41.7394 3.71379C41.7394 6.04614 43.411 10.0105 45.2733 13.6665C47.1292 17.4445 48.6547 21.1583 48.6547 25.7588C48.6547 30.6098 46.9449 33 43.4491 33C41.4788 33 40.1758 32.2418 38.8729 32.2418L38.0593 20.278Z" fill="black"/>
<path d="M16.8178 16.5C16.8178 3.87442 21.1907 0 26.5106 0C31.8305 0 36.2479 3.82944 36.2479 16.5C36.2479 29.1706 31.875 33 26.5106 33C21.1907 33 16.8178 29.1256 16.8178 16.5ZM30.2987 16.5C30.2987 5.01168 29.4407 0.912383 26.5106 0.912383C23.625 0.912383 22.767 5.06308 22.767 16.5C22.767 27.9883 23.625 32.0876 26.5106 32.0876C29.4407 32.0876 30.2987 27.9883 30.2987 16.5Z" fill="black"/>
</svg>
