<?xml version="1.0" encoding="utf-8"?>
<!-- Generator: Adobe Illustrator 24.2.3, SVG Export Plug-In . SVG Version: 6.00 Build 0)  -->
<svg version="1.1" id="Layer_1" xmlns="http://www.w3.org/2000/svg" xmlns:xlink="http://www.w3.org/1999/xlink" x="0px" y="0px"
	 viewBox="0 0 276.75 89.98" style="enable-background:new 0 0 276.75 89.98;" xml:space="preserve">
<style type="text/css">
	.st0{fill:#010101;}
</style>
<line class="st0" x1="230.92" y1="70.82" x2="242.29" y2="70.85"/>
<g>
	<path class="st0" d="M171.16,16.05V5.16h-11.69v4.68v6.21v6.06h-8.77v8.47h8.77v25.13c0,9.84,3.9,15.98,15.59,15.98
		c3.02,0,5.16-0.29,7.99-0.88v-9.84c-1.56,0.29-2.83,0.58-4.77,0.58c-4.87,0-7.11-2.53-7.11-7.7V30.59h11.88v-8.47h-11.88V16.05z"/>
	<path class="st0" d="M132.76,20.71c-7.5,0-12.84,3.51-16.16,10.61v-9.43h-11.09v48.64h11.67V44.74c0-9.24,4.09-14.69,10.9-14.69
		c6.13,0,9.14,3.8,9.14,11.48v28.99h11.67V40.38C148.91,27.34,143.37,20.71,132.76,20.71z"/>
	<path class="st0" d="M229.46,41.21c0-14.12-6.43-20.26-20.85-20.26c-12.57,0-20.75,6.43-21.53,16.85h11.98
		c0.39-5.55,3.8-8.57,9.55-8.57c6.23,0,9.06,3.12,9.06,10.42v1.27l-10.33,1.27c-7.7,1.07-12.37,2.34-15.88,4.38
		c-3.9,2.44-5.94,6.33-5.94,11.01c0,8.67,6.62,14.42,16.66,14.42c7.79,0,13.93-3.6,16.27-9.55c0.1,3.02,0.39,5.94,0.78,8.38h11.69
		c-0.97-3.41-1.46-8.47-1.46-15.1V41.21z M217.97,50.85c0,7.7-4.87,12.86-12.08,12.86c-5.16,0-8.28-2.63-8.28-6.72
		c0-4.19,2.92-6.53,9.35-7.6l11.01-1.66V50.85z"/>
	<path class="st0" d="M89.63,21.88L79.99,53.7c-0.79,2.53-1.27,4.28-1.46,5.73h-0.19c-0.29-1.66-0.68-3.51-1.46-5.73L66.28,21.88
		H53.66C52.14,9.07,42.51,0,27.59,0C11.5,0,1.9,7.65,1.9,20.45c0,13.79,10.01,17.22,23.09,20.28l0.69,0.16
		C36.11,43.36,43,44.98,43,52.68c0,6.43-5.44,10.27-14.54,10.27c-10.3,0-15.3-3.62-16.56-12.05H0c0.93,14.03,11.2,21.73,29.05,21.73
		c16.09,0,26.08-8.3,26.08-21.66c0-14.41-10.45-17.87-25.22-21.18c-9.94-2.22-15.98-4.06-15.98-10.85c0-5.75,5.32-9.46,13.57-9.46
		c7.9,0,13.51,5.82,14.64,12.63h11.41l18.89,47.93l-0.98,2.91c-1.85,5.36-4.86,7.69-10.51,7.69l-8.15,0.1v9.24h9.42
		c10.41,0,16.93-4.38,21.31-16.74l18.3-51.38H89.63V21.88z"/>
	<polygon class="st0" points="258.03,46.41 258.03,45.52 260.57,45.29 276.75,22.14 265.25,22.14 255.01,36.61 254.69,39.7 
		254.27,39.7 253.85,39.7 253.53,36.61 243.29,22.14 231.8,22.14 247.97,45.29 250.51,45.52 250.51,46.41 247.96,46.65 
		231.91,70.82 243.27,70.85 253.52,55.34 253.85,52.21 254.27,52.21 254.69,52.21 255.02,55.34 265.28,70.85 276.64,70.82 
		260.58,46.65 	"/>
</g>
</svg>
