<svg width="304" height="80" viewBox="0 0 304 80" fill="none" xmlns="http://www.w3.org/2000/svg">
<path d="M161.696 64.7378C161.696 65.1279 161.858 65.4529 161.858 65.4529L161.696 64.7378Z" fill="black"/>
<path d="M288.481 79.4309H303.937L298.899 65.4691L274.976 0.568848H253.457L262.364 47.8178L266.817 71.5642C267.044 72.1493 267.694 73.2708 269.385 73.4821V73.4984C273.562 74.0347 277.576 74.5386 281.412 75.0425L278.34 63.2099H283.638L288.481 79.4309ZM279.234 51.036H275.739C273.334 39.9999 269.807 24.9004 267.012 13.6367C270.49 24.9004 275.479 39.9999 279.234 51.036Z" fill="black"/>
<path d="M26.2964 52.5313L29.3843 65.4528L32.7323 79.4308H47.5058L44.1578 65.4528H44.1416L40.1922 48.9555C27.6291 48.0128 26.2151 51.0034 26.2964 52.5313Z" fill="black"/>
<path d="M39.0059 43.9495L31.9686 14.5306H33.8864L37.982 31.6618H49.9276L42.4677 0.568848H0L7.44363 31.6618H19.3892L15.2936 14.5306H17.2114L22.2496 35.6114C22.2496 35.6114 24.46 41.6902 39.0059 43.9495Z" fill="black"/>
<path d="M75.4277 62.4461L75.769 63.8764C76.1266 65.3392 75.9478 66.0219 74.8101 66.0219H74.4688C73.3474 66.0219 72.9573 65.3392 72.551 63.6489L69.8206 52.2389C66.2288 51.8163 62.8971 51.4262 59.8416 51.0849C56.2823 50.9874 55.9898 52.4665 56.0873 53.2629L62.3607 79.431H75.6553L74.4201 74.2462C76.3704 78.1958 79.0683 79.9999 83.2289 79.9999H85.1467C91.4527 79.9999 93.468 76.1641 90.9651 65.6968L88.706 56.2373C88.5597 55.6196 88.3972 55.0183 88.2347 54.4331C82.8389 53.783 77.7681 53.1816 73.0874 52.6453L75.4277 62.4461Z" fill="black"/>
<path d="M78.9383 49.0694C81.4574 49.3944 84.074 49.7195 86.7719 50.0608C84.074 43.2994 79.9784 39.2035 73.1849 33.7911C66.3751 28.3786 64.5061 26.2494 63.3196 21.2921L62.1007 16.221C61.7269 14.6444 61.8081 14.0755 62.9458 14.0755H63.2871C64.4085 14.0755 64.8799 14.6444 65.3187 16.4486L67.9678 27.4847H81.8312L75.3627 0.568873H62.0682L63.2546 5.5262C61.2393 1.80414 58.6714 0 54.5108 0H52.7068C46.287 0 44.3855 3.83583 46.9209 14.4169L48.3999 20.6095C51.0165 31.5318 55.2096 36.3754 63.7097 43.1368C64.9449 44.1283 66.0013 45.006 66.9439 45.8024C67.5453 46.1925 70.6983 47.9804 78.9545 49.0369L78.9383 49.0694Z" fill="black"/>
<path d="M93.0944 50.8735C96.93 51.3611 100.912 51.8649 105.007 52.4013L95.9711 14.6444H96.865L93.5007 0.568848H76.8257L80.1899 14.6444H81.1976L89.3726 48.7768C89.5189 49.1506 90.169 50.4184 93.0944 50.8735Z" fill="black"/>
<path d="M109.834 59.4069L110.858 63.6654C111.264 65.3557 111.086 66.0384 109.964 66.0384H109.737C108.615 66.0384 108.111 65.3557 107.705 63.6654L105.999 56.5463C101.773 56.0425 97.6611 55.5548 93.728 55.0835C90.8188 55.181 91.5664 57.8628 91.5664 57.8628L93.3379 65.2419C96.0846 76.7332 99.5789 80.0001 110.045 80.0001H115.571C125.94 80.0001 127.858 76.7332 125.111 65.2419L123.519 58.643C119.651 58.1717 115.848 57.7166 112.142 57.2777C109.932 57.2615 109.753 58.6105 109.834 59.4069Z" fill="black"/>
<path d="M111.59 53.214V53.2302C115.165 53.6853 118.838 54.1567 122.56 54.628L112.987 14.6444H113.995L110.631 0.568848H94.8657L98.23 14.6444H99.1239L107.868 51.1498C107.998 51.5236 108.648 52.8239 111.59 53.214Z" fill="black"/>
<path d="M137.593 49.2317H123.616L124.981 54.9529C129.695 55.5543 134.505 56.1719 139.397 56.8058L137.593 49.2317Z" fill="black"/>
<path d="M157.178 56.2209C154.593 45.4123 150.303 40.6663 141.673 33.8073C134.863 28.3949 132.994 26.2657 131.807 21.3084L130.588 16.2373C130.215 14.6607 130.296 14.0918 131.434 14.0918H131.775C132.896 14.0918 133.368 14.6607 133.806 16.4648L136.456 27.501H150.319L143.867 0.568873H130.572L131.759 5.5262C129.743 1.80414 127.159 0 122.999 0H121.195C114.775 0 112.873 3.83583 115.409 14.4169L116.888 20.6095C119.504 31.5318 123.697 36.3754 132.197 43.1368C139.04 48.663 141.104 50.6785 142.258 55.522L142.664 57.1961C147.686 57.8463 152.757 58.4964 157.893 59.1465L157.178 56.2209Z" fill="black"/>
<path d="M163.727 59.8779V59.9104C167.726 60.4306 171.756 60.9344 175.77 61.4545L171.984 45.6236H175.023L178.501 60.1867H178.517C178.517 60.1867 178.777 61.8284 181.995 62.2347V62.2509C186.075 62.7711 190.17 63.2912 194.233 63.8275L182.466 14.6444H183.36L179.996 0.568848H163.321L166.685 14.6444H167.579L171.626 31.548H168.587L164.54 14.6444H165.434L162.07 0.568848H145.443L148.808 14.6444H149.702L160.006 57.7C160.022 57.7 160.298 59.4553 163.727 59.8779Z" fill="black"/>
<path d="M180.159 67.3543L183.052 79.4307H198.004L195.095 67.2893C190.853 66.7855 186.611 66.2654 182.369 65.7615C180.012 65.6965 180.061 66.9318 180.159 67.3543Z" fill="black"/>
<path d="M161.696 64.7376L161.858 65.4528L165.206 79.4308H180.077L176.729 65.4528L176.632 65.0464C172.309 64.5263 168.018 64.0062 163.744 63.4861C162.021 63.4861 161.696 64.185 161.696 64.7376Z" fill="black"/>
<path d="M200.507 64.5915L200.523 64.624C204.667 65.1603 208.779 65.6804 212.858 66.2006L212.68 65.4529H212.696L200.539 14.6444H201.433L198.069 0.568848H181.377L184.742 14.6444H185.636L197.126 62.6735C197.24 62.9824 197.776 64.2501 200.507 64.5915Z" fill="black"/>
<path d="M234.897 73.9533L236.75 79.4307H246.891L246.046 73.4006C243.17 73.0593 240.293 72.718 237.367 72.3604C234.198 72.1166 234.897 73.9533 234.897 73.9533Z" fill="black"/>
<path d="M218.758 66.9481L218.774 66.9643C222.366 67.4194 225.925 67.8745 229.452 68.3296L228.77 65.4527H228.786L225.34 51.0359C223.91 45.0708 221.83 36.8303 220.123 30.1989C222.415 36.9603 225.308 45.7535 227.144 51.0359L232.735 67.5332C232.963 67.9883 233.613 68.931 235.368 69.0935V69.1098C238.846 69.5486 242.275 69.9875 245.64 70.4263L242.925 51.0521C242.227 45.7535 240.943 36.6353 239.968 29.76C241.479 36.5215 243.413 45.0871 244.843 51.0521L248.289 65.469L249.166 69.1585C249.329 69.6949 249.882 70.9627 251.702 71.1902V71.2065C256.122 71.7754 260.413 72.328 264.574 72.8643L262.802 65.469L250.645 14.6605H251.653L248.289 0.584961H226.771L230.151 24.1363C230.752 28.5248 231.695 33.3683 232.573 38.0006C231.126 33.3846 229.745 28.541 228.233 24.1363L220.465 0.584961H199.401L202.766 14.6605H203.66L215.768 65.2252C215.881 65.5665 216.418 66.6555 218.758 66.9481Z" fill="black"/>
<path d="M217.345 71.7593L219.181 79.4309H232.118L230.216 71.5155C226.69 71.0929 223.13 70.6703 219.555 70.2314C217.361 70.1989 217.279 71.2717 217.345 71.7593Z" fill="black"/>
</svg>
